<svg width="32" height="32" viewBox="0 0 32 32" fill="none" xmlns="http://www.w3.org/2000/svg">
<g clip-path="url(#clip0_115_748)">
<path d="M19.4076 6.93501L22.9385 3.39792C23.0644 3.27177 23.2138 3.1717 23.3783 3.10342C23.5428 3.03514 23.7191 3 23.8971 3C24.0752 3 24.2515 3.03514 24.416 3.10342C24.5805 3.1717 24.7299 3.27177 24.8557 3.39792L30.6033 9.15467C30.8573 9.4091 31 9.75414 31 10.1139C31 10.4737 30.8573 10.8187 30.6033 11.0731L25.4844 16.199V28.6432C25.4844 29.0031 25.3417 29.3482 25.0876 29.6026C24.8335 29.8571 24.4889 30 24.1295 30H7.8705C7.51115 30 7.16652 29.8571 6.91243 29.6026C6.65833 29.3482 6.51558 29.0031 6.51558 28.6432V16.199L1.3967 11.0731C1.14269 10.8187 1 10.4737 1 10.1139C1 9.75414 1.14269 9.4091 1.3967 9.15467L7.14426 3.39792C7.2701 3.27177 7.41953 3.1717 7.58401 3.10342C7.7485 3.03514 7.92481 3 8.10287 3C8.28092 3 8.45723 3.03514 8.62172 3.10342C8.7862 3.1717 8.93563 3.27177 9.06147 3.39792L12.5924 6.93501H19.4076Z" fill="url(#paint0_linear_115_748)"/>
</g>
<defs>
<linearGradient id="paint0_linear_115_748" x1="1" y1="16.5" x2="31" y2="16.5" gradientUnits="userSpaceOnUse">
<stop stop-color="#DA22FF"/>
<stop offset="1" stop-color="#9733EE"/>
</linearGradient>
<clipPath id="clip0_115_748">
<rect width="32" height="32" fill="white"/>
</clipPath>
</defs>
</svg>
