<svg width="20" height="27" viewBox="0 0 20 27" fill="none" xmlns="http://www.w3.org/2000/svg">
<path d="M2.25753 0H18.5432C18.9032 0 19.2484 0.142232 19.5029 0.395406C19.7574 0.64858 19.9004 0.991958 19.9004 1.35V25.65C19.9004 26.008 19.7574 26.3514 19.5029 26.6046C19.2484 26.8578 18.9032 27 18.5432 27H2.25753C1.8976 27 1.5524 26.8578 1.29789 26.6046C1.04338 26.3514 0.900391 26.008 0.900391 25.65V1.35C0.900391 0.991958 1.04338 0.64858 1.29789 0.395406C1.5524 0.142232 1.8976 0 2.25753 0ZM10.4004 20.25C10.0405 20.25 9.69526 20.3922 9.44075 20.6454C9.18623 20.8986 9.04325 21.242 9.04325 21.6C9.04325 21.958 9.18623 22.3014 9.44075 22.5546C9.69526 22.8078 10.0405 22.95 10.4004 22.95C10.7603 22.95 11.1055 22.8078 11.36 22.5546C11.6145 22.3014 11.7575 21.958 11.7575 21.6C11.7575 21.242 11.6145 20.8986 11.36 20.6454C11.1055 20.3922 10.7603 20.25 10.4004 20.25Z" fill="url(#paint0_linear_115_756)"/>
<defs>
<linearGradient id="paint0_linear_115_756" x1="0.900391" y1="13.5" x2="19.9004" y2="13.5" gradientUnits="userSpaceOnUse">
<stop stop-color="#0052D4"/>
<stop offset="0.5" stop-color="#4364F7"/>
<stop offset="1" stop-color="#6FB1FC"/>
</linearGradient>
</defs>
</svg>
